<svg xmlns="http://www.w3.org/2000/svg" width="1400" height="840" viewBox="0 0 1400 840" fill="none">
  <defs>
    <linearGradient id="bg" x1="0" y1="0" x2="1" y2="1">
      <stop offset="0%" stop-color="#081821"/>
      <stop offset="100%" stop-color="#031017"/>
    </linearGradient>
    <linearGradient id="panel" x1="0" y1="0" x2="0" y2="1">
      <stop offset="0%" stop-color="#0d2430" stop-opacity="0.96"/>
      <stop offset="100%" stop-color="#091821" stop-opacity="0.96"/>
    </linearGradient>
    <linearGradient id="line" x1="0" y1="0" x2="1" y2="0">
      <stop offset="0%" stop-color="#48e8ff" stop-opacity="0"/>
      <stop offset="18%" stop-color="#48e8ff" stop-opacity="0.75"/>
      <stop offset="82%" stop-color="#48e8ff" stop-opacity="0.75"/>
      <stop offset="100%" stop-color="#48e8ff" stop-opacity="0"/>
    </linearGradient>
    <filter id="glow" x="-60%" y="-60%" width="220%" height="220%">
      <feGaussianBlur stdDeviation="4.5" result="g"/>
      <feMerge><feMergeNode in="g"/><feMergeNode in="SourceGraphic"/></feMerge>
    </filter>
  </defs>
  <rect width="1400" height="840" fill="url(#bg)"/>
  <g opacity="0.08">
    <path d="M0 70 H1400" stroke="#48e8ff"/>
    <path d="M0 140 H1400" stroke="#48e8ff"/>
    <path d="M0 210 H1400" stroke="#48e8ff"/>
    <path d="M0 280 H1400" stroke="#48e8ff"/>
    <path d="M0 350 H1400" stroke="#48e8ff"/>
    <path d="M0 420 H1400" stroke="#48e8ff"/>
    <path d="M0 490 H1400" stroke="#48e8ff"/>
    <path d="M0 560 H1400" stroke="#48e8ff"/>
    <path d="M0 630 H1400" stroke="#48e8ff"/>
    <path d="M0 700 H1400" stroke="#48e8ff"/>
    <path d="M100 0 V840" stroke="#48e8ff"/>
    <path d="M250 0 V840" stroke="#48e8ff"/>
    <path d="M400 0 V840" stroke="#48e8ff"/>
    <path d="M550 0 V840" stroke="#48e8ff"/>
    <path d="M700 0 V840" stroke="#48e8ff"/>
    <path d="M850 0 V840" stroke="#48e8ff"/>
    <path d="M1000 0 V840" stroke="#48e8ff"/>
    <path d="M1150 0 V840" stroke="#48e8ff"/>
    <path d="M1300 0 V840" stroke="#48e8ff"/>
  </g>
  <rect x="20" y="20" width="1360" height="800" rx="14" fill="url(#panel)" stroke="#48e8ff" stroke-opacity="0.45"/>
  <rect x="42" y="40" width="1316" height="82" rx="10" fill="#0a1821" stroke="#48e8ff" stroke-opacity="0.28"/>
  
    <text x="68" y="92" fill="#d8fbff" font-family="Consolas, monospace" font-size="34" letter-spacing="1">BANISHED WAR ASSETS</text>
    <text x="68" y="124" fill="#81b8c1" font-family="Consolas, monospace" font-size="17">SALVAGED, MODIFIED, AND HEAVILY ARMED FIELD SYSTEMS</text>
    <path d="M52 146 H1348" stroke="url(#line)" stroke-width="3" filter="url(#glow)"/>
    <rect x="80" y="190" width="1240" height="560" rx="12" fill="#09161d" stroke="#ff4e63" stroke-opacity="0.45"/><text x="96" y="218" fill="#d8fbff" font-family="Consolas, monospace" font-size="20">REPRESENTATIVE ASSET TYPES</text><path d="M94 228 H1306" stroke="#ff4e63" stroke-opacity="0.35"/><path d="M110 350 H340 L410 400 L340 455 H110 L70 402 Z" fill="#161d24" stroke="#ff4e63" stroke-width="2.6"/><text x="240" y="520" text-anchor="middle" fill="#d8fbff" font-family="Consolas, monospace" font-size="18">Dreadnought / carrier silhouette</text><text x="240" y="545" text-anchor="middle" fill="#81b8c1" font-family="Consolas, monospace" font-size="13">flagship and transport roles</text><circle cx="700" cy="275" r="38" fill="none" stroke="#48e8ff" stroke-width="3"/><path d="M700 315 L700 460 M700 355 L640 420 M700 355 L770 405 M700 460 L660 565 M700 460 L750 560" stroke="#48e8ff" stroke-width="4" fill="none"/><path d="M770 405 L860 355" stroke="#ffba57" stroke-width="5"/><text x="700" y="615" text-anchor="middle" fill="#d8fbff" font-family="Consolas, monospace" font-size="18">Shock / assault infantry</text><text x="700" y="640" text-anchor="middle" fill="#81b8c1" font-family="Consolas, monospace" font-size="13">boarding, melee dominance, suppression</text><rect x="1000" y="390" width="180" height="58" rx="10" fill="#101b22" stroke="#ff4e63" stroke-width="2.5"/><circle cx="1038" cy="458" r="22" fill="none" stroke="#48e8ff" stroke-width="2"/><circle cx="1142" cy="458" r="22" fill="none" stroke="#48e8ff" stroke-width="2"/><path d="M1100 390 L1185 350" stroke="#ffba57" stroke-width="5"/><text x="1090" y="520" text-anchor="middle" fill="#d8fbff" font-family="Consolas, monospace" font-size="18">Siege weapon platforms</text><text x="1090" y="545" text-anchor="middle" fill="#81b8c1" font-family="Consolas, monospace" font-size="13">fortification breach and denial</text>
</svg>