<svg xmlns="http://www.w3.org/2000/svg" width="1400" height="840" viewBox="0 0 1400 840" fill="none">
  <defs>
    <linearGradient id="bg" x1="0" y1="0" x2="1" y2="1">
      <stop offset="0%" stop-color="#081821"/>
      <stop offset="100%" stop-color="#031017"/>
    </linearGradient>
    <linearGradient id="panel" x1="0" y1="0" x2="0" y2="1">
      <stop offset="0%" stop-color="#0d2430" stop-opacity="0.96"/>
      <stop offset="100%" stop-color="#091821" stop-opacity="0.96"/>
    </linearGradient>
    <linearGradient id="line" x1="0" y1="0" x2="1" y2="0">
      <stop offset="0%" stop-color="#48e8ff" stop-opacity="0"/>
      <stop offset="18%" stop-color="#48e8ff" stop-opacity="0.75"/>
      <stop offset="82%" stop-color="#48e8ff" stop-opacity="0.75"/>
      <stop offset="100%" stop-color="#48e8ff" stop-opacity="0"/>
    </linearGradient>
    <filter id="glow" x="-60%" y="-60%" width="220%" height="220%">
      <feGaussianBlur stdDeviation="4.5" result="g"/>
      <feMerge><feMergeNode in="g"/><feMergeNode in="SourceGraphic"/></feMerge>
    </filter>
  </defs>
  <rect width="1400" height="840" fill="url(#bg)"/>
  <g opacity="0.08">
    <path d="M0 70 H1400" stroke="#48e8ff"/>
    <path d="M0 140 H1400" stroke="#48e8ff"/>
    <path d="M0 210 H1400" stroke="#48e8ff"/>
    <path d="M0 280 H1400" stroke="#48e8ff"/>
    <path d="M0 350 H1400" stroke="#48e8ff"/>
    <path d="M0 420 H1400" stroke="#48e8ff"/>
    <path d="M0 490 H1400" stroke="#48e8ff"/>
    <path d="M0 560 H1400" stroke="#48e8ff"/>
    <path d="M0 630 H1400" stroke="#48e8ff"/>
    <path d="M0 700 H1400" stroke="#48e8ff"/>
    <path d="M100 0 V840" stroke="#48e8ff"/>
    <path d="M250 0 V840" stroke="#48e8ff"/>
    <path d="M400 0 V840" stroke="#48e8ff"/>
    <path d="M550 0 V840" stroke="#48e8ff"/>
    <path d="M700 0 V840" stroke="#48e8ff"/>
    <path d="M850 0 V840" stroke="#48e8ff"/>
    <path d="M1000 0 V840" stroke="#48e8ff"/>
    <path d="M1150 0 V840" stroke="#48e8ff"/>
    <path d="M1300 0 V840" stroke="#48e8ff"/>
  </g>
  <rect x="20" y="20" width="1360" height="800" rx="14" fill="url(#panel)" stroke="#48e8ff" stroke-opacity="0.45"/>
  <rect x="42" y="40" width="1316" height="82" rx="10" fill="#0a1821" stroke="#48e8ff" stroke-opacity="0.28"/>
  
    <text x="68" y="92" fill="#d8fbff" font-family="Consolas, monospace" font-size="34" letter-spacing="1">COVENANT WAR ASSETS</text>
    <text x="68" y="124" fill="#81b8c1" font-family="Consolas, monospace" font-size="17">REPRESENTATIVE FLEET COMPOSITION AND SPECIES DEPLOYMENT</text>
    <path d="M52 146 H1348" stroke="url(#line)" stroke-width="3" filter="url(#glow)"/>
    <rect x="70" y="180" width="1260" height="580" rx="12" fill="#09161d" stroke="#48e8ff" stroke-opacity="0.45"/><text x="86" y="208" fill="#d8fbff" font-family="Consolas, monospace" font-size="20">CCS-CLASS BATTLECRUISER // SCHEMATIC PROFILE</text><path d="M84 218 H1316" stroke="#48e8ff" stroke-opacity="0.35"/><path d="M150 420 Q300 260 560 250 H1070 Q1120 250 1160 300 Q1210 360 1210 420 Q1210 480 1160 540 Q1120 590 1070 590 H560 Q300 580 150 420 Z" fill="#0d2731" stroke="#48e8ff" stroke-width="2.8"/><path d="M270 420 Q380 310 580 305 H1020 Q1090 305 1132 360 Q1162 392 1162 420 Q1162 450 1132 480 Q1090 535 1020 535 H580 Q380 530 270 420 Z" fill="none" stroke="#ffba57" stroke-opacity="0.45" stroke-width="2"/><circle cx="815" cy="420" r="56" fill="none" stroke="#9dffcf" stroke-opacity="0.55" stroke-width="2"/><circle cx="815" cy="420" r="20" fill="none" stroke="#48e8ff" stroke-opacity="0.55" stroke-width="2"/><path d="M820 230 L 820 364" stroke="#48e8ff" stroke-opacity="0.7" stroke-width="1.8"/><rect x="750" y="210" width="140" height="32" rx="8" fill="#081720" stroke="#48e8ff" stroke-opacity="0.35"/><text x="820" y="232" text-anchor="middle" fill="#d8fbff" font-family="Consolas, monospace" font-size="14">Command core</text><path d="M540 660 L 600 500" stroke="#48e8ff" stroke-opacity="0.7" stroke-width="1.8"/><rect x="470" y="640" width="140" height="32" rx="8" fill="#081720" stroke="#48e8ff" stroke-opacity="0.35"/><text x="540" y="662" text-anchor="middle" fill="#d8fbff" font-family="Consolas, monospace" font-size="14">Primary hangars</text><path d="M1045 625 L 1030 500" stroke="#48e8ff" stroke-opacity="0.7" stroke-width="1.8"/><rect x="975" y="605" width="140" height="32" rx="8" fill="#081720" stroke="#48e8ff" stroke-opacity="0.35"/><text x="1045" y="627" text-anchor="middle" fill="#d8fbff" font-family="Consolas, monospace" font-size="14">Plasma battery arcs</text><path d="M310 200 L 440 350" stroke="#48e8ff" stroke-opacity="0.7" stroke-width="1.8"/><rect x="240" y="180" width="140" height="32" rx="8" fill="#081720" stroke="#48e8ff" stroke-opacity="0.35"/><text x="310" y="202" text-anchor="middle" fill="#d8fbff" font-family="Consolas, monospace" font-size="14">Energy projector channel</text><rect x="120" y="640" width="1160" height="90" rx="12" fill="#09161d" stroke="#ffba57" stroke-opacity="0.45"/><text x="145" y="677" text-anchor="start" fill="#81b8c1" font-family="Consolas, monospace" font-size="16">Common deployments in war-era records include battlecruisers, carriers, assault carriers, and mixed-species boarding complements.</text><text x="145" y="705" text-anchor="start" fill="#81b8c1" font-family="Consolas, monospace" font-size="16">This visual supports fleet, species, and campaign entries tied to Covenant naval operations.</text>
</svg>