<svg xmlns="http://www.w3.org/2000/svg" width="1400" height="840" viewBox="0 0 1400 840" fill="none">
  <defs>
    <linearGradient id="bg" x1="0" y1="0" x2="1" y2="1">
      <stop offset="0%" stop-color="#081821"/>
      <stop offset="100%" stop-color="#031017"/>
    </linearGradient>
    <linearGradient id="panel" x1="0" y1="0" x2="0" y2="1">
      <stop offset="0%" stop-color="#0d2430" stop-opacity="0.96"/>
      <stop offset="100%" stop-color="#091821" stop-opacity="0.96"/>
    </linearGradient>
    <linearGradient id="line" x1="0" y1="0" x2="1" y2="0">
      <stop offset="0%" stop-color="#48e8ff" stop-opacity="0"/>
      <stop offset="18%" stop-color="#48e8ff" stop-opacity="0.75"/>
      <stop offset="82%" stop-color="#48e8ff" stop-opacity="0.75"/>
      <stop offset="100%" stop-color="#48e8ff" stop-opacity="0"/>
    </linearGradient>
    <filter id="glow" x="-60%" y="-60%" width="220%" height="220%">
      <feGaussianBlur stdDeviation="4.5" result="g"/>
      <feMerge><feMergeNode in="g"/><feMergeNode in="SourceGraphic"/></feMerge>
    </filter>
  </defs>
  <rect width="1400" height="840" fill="url(#bg)"/>
  <g opacity="0.08">
    <path d="M0 70 H1400" stroke="#48e8ff"/>
    <path d="M0 140 H1400" stroke="#48e8ff"/>
    <path d="M0 210 H1400" stroke="#48e8ff"/>
    <path d="M0 280 H1400" stroke="#48e8ff"/>
    <path d="M0 350 H1400" stroke="#48e8ff"/>
    <path d="M0 420 H1400" stroke="#48e8ff"/>
    <path d="M0 490 H1400" stroke="#48e8ff"/>
    <path d="M0 560 H1400" stroke="#48e8ff"/>
    <path d="M0 630 H1400" stroke="#48e8ff"/>
    <path d="M0 700 H1400" stroke="#48e8ff"/>
    <path d="M100 0 V840" stroke="#48e8ff"/>
    <path d="M250 0 V840" stroke="#48e8ff"/>
    <path d="M400 0 V840" stroke="#48e8ff"/>
    <path d="M550 0 V840" stroke="#48e8ff"/>
    <path d="M700 0 V840" stroke="#48e8ff"/>
    <path d="M850 0 V840" stroke="#48e8ff"/>
    <path d="M1000 0 V840" stroke="#48e8ff"/>
    <path d="M1150 0 V840" stroke="#48e8ff"/>
    <path d="M1300 0 V840" stroke="#48e8ff"/>
  </g>
  <rect x="20" y="20" width="1360" height="800" rx="14" fill="url(#panel)" stroke="#48e8ff" stroke-opacity="0.45"/>
  <rect x="42" y="40" width="1316" height="82" rx="10" fill="#0a1821" stroke="#48e8ff" stroke-opacity="0.28"/>
  
    <text x="68" y="92" fill="#d8fbff" font-family="Consolas, monospace" font-size="34" letter-spacing="1">FLOOD INFESTATION CYCLE</text>
    <text x="68" y="124" fill="#81b8c1" font-family="Consolas, monospace" font-size="17">SIMPLIFIED PROGRESSION FROM OUTBREAK TO COORDINATED PARASITISM</text>
    <path d="M52 146 H1348" stroke="url(#line)" stroke-width="3" filter="url(#glow)"/>
    <rect x="80" y="220" width="1240" height="520" rx="12" fill="#09161d" stroke="#48e8ff" stroke-opacity="0.45"/><text x="96" y="248" fill="#d8fbff" font-family="Consolas, monospace" font-size="20">INFECTION PROGRESSION</text><path d="M94 258 H1306" stroke="#48e8ff" stroke-opacity="0.35"/><path d="M160 480 H1240" stroke="#48e8ff" stroke-width="5" filter="url(#glow)"/><circle cx="180" cy="480" r="16" fill="#48e8ff" stroke="#d8fbff" stroke-opacity="0.55"/><rect x="88" y="300" width="184" height="86" rx="12" fill="#0a1a22" stroke="#ff4e63" stroke-opacity="0.45"/><text x="180" y="328" text-anchor="middle" fill="#d8fbff" font-family="Consolas, monospace" font-size="18">Contact</text><text x="180" y="352" text-anchor="middle" fill="#81b8c1" font-family="Consolas, monospace" font-size="13">initial spore / host interface</text><path d="M180 480 V 386" stroke="#48e8ff" stroke-opacity="0.55"/><circle cx="420" cy="480" r="16" fill="#48e8ff" stroke="#d8fbff" stroke-opacity="0.55"/><rect x="328" y="530" width="184" height="86" rx="12" fill="#0a1a22" stroke="#ff4e63" stroke-opacity="0.45"/><text x="420" y="558" text-anchor="middle" fill="#d8fbff" font-family="Consolas, monospace" font-size="18">Infection</text><text x="420" y="582" text-anchor="middle" fill="#81b8c1" font-family="Consolas, monospace" font-size="13">host conversion</text><path d="M420 480 V 530" stroke="#48e8ff" stroke-opacity="0.55"/><circle cx="700" cy="480" r="16" fill="#48e8ff" stroke="#d8fbff" stroke-opacity="0.55"/><rect x="608" y="300" width="184" height="86" rx="12" fill="#0a1a22" stroke="#ff4e63" stroke-opacity="0.45"/><text x="700" y="328" text-anchor="middle" fill="#d8fbff" font-family="Consolas, monospace" font-size="18">Spread</text><text x="700" y="352" text-anchor="middle" fill="#81b8c1" font-family="Consolas, monospace" font-size="13">combat / carrier proliferation</text><path d="M700 480 V 386" stroke="#48e8ff" stroke-opacity="0.55"/><circle cx="980" cy="480" r="16" fill="#48e8ff" stroke="#d8fbff" stroke-opacity="0.55"/><rect x="888" y="530" width="184" height="86" rx="12" fill="#0a1a22" stroke="#ff4e63" stroke-opacity="0.45"/><text x="980" y="558" text-anchor="middle" fill="#d8fbff" font-family="Consolas, monospace" font-size="18">Coordination</text><text x="980" y="582" text-anchor="middle" fill="#81b8c1" font-family="Consolas, monospace" font-size="13">proto-Gravemind networks</text><path d="M980 480 V 530" stroke="#48e8ff" stroke-opacity="0.55"/><circle cx="1220" cy="480" r="16" fill="#48e8ff" stroke="#d8fbff" stroke-opacity="0.55"/><rect x="1128" y="300" width="184" height="86" rx="12" fill="#0a1a22" stroke="#ff4e63" stroke-opacity="0.45"/><text x="1220" y="328" text-anchor="middle" fill="#d8fbff" font-family="Consolas, monospace" font-size="18">Dominance</text><text x="1220" y="352" text-anchor="middle" fill="#81b8c1" font-family="Consolas, monospace" font-size="13">Gravemind / key mind stage</text><path d="M1220 480 V 386" stroke="#48e8ff" stroke-opacity="0.55"/>
</svg>