<svg xmlns="http://www.w3.org/2000/svg" width="1400" height="840" viewBox="0 0 1400 840" fill="none">
  <defs>
    <linearGradient id="bg" x1="0" y1="0" x2="1" y2="1">
      <stop offset="0%" stop-color="#081821"/>
      <stop offset="100%" stop-color="#031017"/>
    </linearGradient>
    <linearGradient id="panel" x1="0" y1="0" x2="0" y2="1">
      <stop offset="0%" stop-color="#0d2430" stop-opacity="0.96"/>
      <stop offset="100%" stop-color="#091821" stop-opacity="0.96"/>
    </linearGradient>
    <linearGradient id="line" x1="0" y1="0" x2="1" y2="0">
      <stop offset="0%" stop-color="#48e8ff" stop-opacity="0"/>
      <stop offset="18%" stop-color="#48e8ff" stop-opacity="0.75"/>
      <stop offset="82%" stop-color="#48e8ff" stop-opacity="0.75"/>
      <stop offset="100%" stop-color="#48e8ff" stop-opacity="0"/>
    </linearGradient>
    <filter id="glow" x="-60%" y="-60%" width="220%" height="220%">
      <feGaussianBlur stdDeviation="4.5" result="g"/>
      <feMerge><feMergeNode in="g"/><feMergeNode in="SourceGraphic"/></feMerge>
    </filter>
  </defs>
  <rect width="1400" height="840" fill="url(#bg)"/>
  <g opacity="0.08">
    <path d="M0 70 H1400" stroke="#48e8ff"/>
    <path d="M0 140 H1400" stroke="#48e8ff"/>
    <path d="M0 210 H1400" stroke="#48e8ff"/>
    <path d="M0 280 H1400" stroke="#48e8ff"/>
    <path d="M0 350 H1400" stroke="#48e8ff"/>
    <path d="M0 420 H1400" stroke="#48e8ff"/>
    <path d="M0 490 H1400" stroke="#48e8ff"/>
    <path d="M0 560 H1400" stroke="#48e8ff"/>
    <path d="M0 630 H1400" stroke="#48e8ff"/>
    <path d="M0 700 H1400" stroke="#48e8ff"/>
    <path d="M100 0 V840" stroke="#48e8ff"/>
    <path d="M250 0 V840" stroke="#48e8ff"/>
    <path d="M400 0 V840" stroke="#48e8ff"/>
    <path d="M550 0 V840" stroke="#48e8ff"/>
    <path d="M700 0 V840" stroke="#48e8ff"/>
    <path d="M850 0 V840" stroke="#48e8ff"/>
    <path d="M1000 0 V840" stroke="#48e8ff"/>
    <path d="M1150 0 V840" stroke="#48e8ff"/>
    <path d="M1300 0 V840" stroke="#48e8ff"/>
  </g>
  <rect x="20" y="20" width="1360" height="800" rx="14" fill="url(#panel)" stroke="#48e8ff" stroke-opacity="0.45"/>
  <rect x="42" y="40" width="1316" height="82" rx="10" fill="#0a1821" stroke="#48e8ff" stroke-opacity="0.28"/>
  
    <text x="68" y="92" fill="#d8fbff" font-family="Consolas, monospace" font-size="34" letter-spacing="1">FLOOD FORM TAXONOMY</text>
    <text x="68" y="124" fill="#81b8c1" font-family="Consolas, monospace" font-size="17">COMMON OPERATIONAL FORMS REFERENCED THROUGHOUT FLOOD RECORDS</text>
    <path d="M52 146 H1348" stroke="url(#line)" stroke-width="3" filter="url(#glow)"/>
    <rect x="80" y="190" width="1240" height="570" rx="12" fill="#09161d" stroke="#48e8ff" stroke-opacity="0.45"/><text x="96" y="218" fill="#d8fbff" font-family="Consolas, monospace" font-size="20">FORM CLUSTERS</text><path d="M94 228 H1306" stroke="#48e8ff" stroke-opacity="0.35"/><rect x="90" y="240" width="260" height="240" rx="14" fill="#0a1a22" stroke="#ff4e63" stroke-opacity="0.48"/><circle cx="220" cy="360" r="64" fill="none" stroke="#ff4e63" stroke-width="3"/><circle cx="190" cy="350" r="9" fill="#48e8ff"/><circle cx="252" cy="350" r="9" fill="#48e8ff"/><path d="M220 300 L220 250 M178 360 L130 360 M262 360 L310 360 M197 403 L165 445 M243 403 L275 445" stroke="#ff4e63" stroke-width="3"/><text x="220" y="455" text-anchor="middle" fill="#d8fbff" font-family="Consolas, monospace" font-size="18">Infection Form</text><text x="220" y="478" text-anchor="middle" fill="#81b8c1" font-family="Consolas, monospace" font-size="13">host acquisition</text><rect x="400" y="240" width="260" height="240" rx="14" fill="#0a1a22" stroke="#48e8ff" stroke-opacity="0.48"/><path d="M480 450 Q505 330 530 290 Q562 330 580 450" fill="none" stroke="#48e8ff" stroke-width="3"/><circle cx="530" cy="252" r="34" fill="none" stroke="#48e8ff" stroke-width="3"/><path d="M505 340 L455 380 M555 340 L615 315" stroke="#ff4e63" stroke-width="4"/><text x="530" y="455" text-anchor="middle" fill="#d8fbff" font-family="Consolas, monospace" font-size="18">Combat Form</text><text x="530" y="478" text-anchor="middle" fill="#81b8c1" font-family="Consolas, monospace" font-size="13">frontline assault</text><rect x="730" y="240" width="260" height="240" rx="14" fill="#0a1a22" stroke="#ffba57" stroke-opacity="0.48"/><ellipse cx="860" cy="360" rx="82" ry="62" fill="none" stroke="#ffba57" stroke-width="3"/><circle cx="835" cy="340" r="10" fill="#48e8ff"/><circle cx="888" cy="360" r="12" fill="#48e8ff"/><circle cx="840" cy="385" r="8" fill="#48e8ff"/><circle cx="880" cy="330" r="7" fill="#48e8ff"/><text x="860" y="455" text-anchor="middle" fill="#d8fbff" font-family="Consolas, monospace" font-size="18">Carrier Form</text><text x="860" y="478" text-anchor="middle" fill="#81b8c1" font-family="Consolas, monospace" font-size="13">spore dispersal</text><rect x="1040" y="240" width="260" height="240" rx="14" fill="#0a1a22" stroke="#9dffcf" stroke-opacity="0.48"/><path d="M1100 410 Q1135 285 1170 250 Q1215 300 1240 410" fill="none" stroke="#9dffcf" stroke-width="3"/><circle cx="1170" cy="215" r="30" fill="none" stroke="#9dffcf" stroke-width="3"/><path d="M1140 420 C1120 470 1100 500 1080 520 M1200 420 C1230 470 1250 500 1265 525" stroke="#ff4e63" stroke-width="3"/><text x="1170" y="455" text-anchor="middle" fill="#d8fbff" font-family="Consolas, monospace" font-size="18">Gravemind</text><text x="1170" y="478" text-anchor="middle" fill="#81b8c1" font-family="Consolas, monospace" font-size="13">coordinated intelligence</text>
</svg>