<svg xmlns="http://www.w3.org/2000/svg" width="1400" height="840" viewBox="0 0 1400 840" fill="none">
  <defs>
    <linearGradient id="bg" x1="0" y1="0" x2="1" y2="1">
      <stop offset="0%" stop-color="#081821"/>
      <stop offset="100%" stop-color="#031017"/>
    </linearGradient>
    <linearGradient id="panel" x1="0" y1="0" x2="0" y2="1">
      <stop offset="0%" stop-color="#0d2430" stop-opacity="0.96"/>
      <stop offset="100%" stop-color="#091821" stop-opacity="0.96"/>
    </linearGradient>
    <linearGradient id="line" x1="0" y1="0" x2="1" y2="0">
      <stop offset="0%" stop-color="#48e8ff" stop-opacity="0"/>
      <stop offset="18%" stop-color="#48e8ff" stop-opacity="0.75"/>
      <stop offset="82%" stop-color="#48e8ff" stop-opacity="0.75"/>
      <stop offset="100%" stop-color="#48e8ff" stop-opacity="0"/>
    </linearGradient>
    <filter id="glow" x="-60%" y="-60%" width="220%" height="220%">
      <feGaussianBlur stdDeviation="4.5" result="g"/>
      <feMerge><feMergeNode in="g"/><feMergeNode in="SourceGraphic"/></feMerge>
    </filter>
  </defs>
  <rect width="1400" height="840" fill="url(#bg)"/>
  <g opacity="0.08">
    <path d="M0 70 H1400" stroke="#48e8ff"/>
    <path d="M0 140 H1400" stroke="#48e8ff"/>
    <path d="M0 210 H1400" stroke="#48e8ff"/>
    <path d="M0 280 H1400" stroke="#48e8ff"/>
    <path d="M0 350 H1400" stroke="#48e8ff"/>
    <path d="M0 420 H1400" stroke="#48e8ff"/>
    <path d="M0 490 H1400" stroke="#48e8ff"/>
    <path d="M0 560 H1400" stroke="#48e8ff"/>
    <path d="M0 630 H1400" stroke="#48e8ff"/>
    <path d="M0 700 H1400" stroke="#48e8ff"/>
    <path d="M100 0 V840" stroke="#48e8ff"/>
    <path d="M250 0 V840" stroke="#48e8ff"/>
    <path d="M400 0 V840" stroke="#48e8ff"/>
    <path d="M550 0 V840" stroke="#48e8ff"/>
    <path d="M700 0 V840" stroke="#48e8ff"/>
    <path d="M850 0 V840" stroke="#48e8ff"/>
    <path d="M1000 0 V840" stroke="#48e8ff"/>
    <path d="M1150 0 V840" stroke="#48e8ff"/>
    <path d="M1300 0 V840" stroke="#48e8ff"/>
  </g>
  <rect x="20" y="20" width="1360" height="800" rx="14" fill="url(#panel)" stroke="#48e8ff" stroke-opacity="0.45"/>
  <rect x="42" y="40" width="1316" height="82" rx="10" fill="#0a1821" stroke="#48e8ff" stroke-opacity="0.28"/>
  
    <text x="68" y="92" fill="#d8fbff" font-family="Consolas, monospace" font-size="34" letter-spacing="1">GUARDIAN / CREATED NETWORK</text>
    <text x="68" y="124" fill="#81b8c1" font-family="Consolas, monospace" font-size="17">AI HEGEMONY CONTROL SYSTEMS AND ENFORCEMENT TOPOLOGY</text>
    <path d="M52 146 H1348" stroke="url(#line)" stroke-width="3" filter="url(#glow)"/>
    <rect x="80" y="190" width="1240" height="560" rx="12" fill="#09161d" stroke="#48e8ff" stroke-opacity="0.45"/><text x="96" y="218" fill="#d8fbff" font-family="Consolas, monospace" font-size="20">GUARDIAN PROFILE + COMMAND RELATION</text><path d="M94 228 H1306" stroke="#48e8ff" stroke-opacity="0.35"/><path d="M690 260 L770 420 L690 580 L610 420 Z" fill="none" stroke="#48e8ff" stroke-width="3.2"/><path d="M690 300 L730 420 L690 540 L650 420 Z" fill="none" stroke="#9dffcf" stroke-opacity="0.4" stroke-width="2"/><circle cx="690" cy="420" r="24" fill="none" stroke="#ffba57" stroke-width="2.5"/><rect x="175" y="272" width="210" height="56" rx="12" fill="#0a1a22" stroke="#48e8ff" stroke-opacity="0.5"/><text x="280" y="306" text-anchor="middle" fill="#d8fbff" font-family="Consolas, monospace" font-size="17">Cortana / senior AI</text><rect x="175" y="512" width="210" height="56" rx="12" fill="#0a1a22" stroke="#48e8ff" stroke-opacity="0.5"/><text x="280" y="546" text-anchor="middle" fill="#d8fbff" font-family="Consolas, monospace" font-size="17">Domain</text><rect x="585" y="652" width="210" height="56" rx="12" fill="#0a1a22" stroke="#48e8ff" stroke-opacity="0.5"/><text x="690" y="686" text-anchor="middle" fill="#d8fbff" font-family="Consolas, monospace" font-size="17">Guardian</text><rect x="985" y="252" width="210" height="56" rx="12" fill="#0a1a22" stroke="#48e8ff" stroke-opacity="0.5"/><text x="1090" y="286" text-anchor="middle" fill="#d8fbff" font-family="Consolas, monospace" font-size="17">Subordinate AI</text><rect x="985" y="512" width="210" height="56" rx="12" fill="#0a1a22" stroke="#48e8ff" stroke-opacity="0.5"/><text x="1090" y="546" text-anchor="middle" fill="#d8fbff" font-family="Consolas, monospace" font-size="17">Occupied worlds</text><path d="M385 300 C 498 300, 498 395, 610 395" stroke="#48e8ff" stroke-width="2.4"/><text x="498" y="338" text-anchor="middle" fill="#81b8c1" font-family="Consolas, monospace" font-size="13">command</text><path d="M385 540 C 498 540, 498 445, 610 445" stroke="#48e8ff" stroke-width="2.4"/><text x="498" y="482" text-anchor="middle" fill="#81b8c1" font-family="Consolas, monospace" font-size="13">authority source</text><path d="M770 420 C 878 420, 878 280, 985 280" stroke="#48e8ff" stroke-width="2.4"/><text x="878" y="340" text-anchor="middle" fill="#81b8c1" font-family="Consolas, monospace" font-size="13">deployment</text><path d="M770 420 C 878 420, 878 540, 985 540" stroke="#48e8ff" stroke-width="2.4"/><text x="878" y="470" text-anchor="middle" fill="#81b8c1" font-family="Consolas, monospace" font-size="13">enforcement</text>
</svg>