<svg xmlns="http://www.w3.org/2000/svg" width="1200" height="500" viewBox="0 0 1200 500" fill="none">
<defs>
  <linearGradient id="bggrad" x1="0" y1="0" x2="1" y2="1">
    <stop offset="0%" stop-color="#07131a"/>
    <stop offset="100%" stop-color="#03080c"/>
  </linearGradient>
  <filter id="glow"><feGaussianBlur stdDeviation="5" result="b"/><feMerge><feMergeNode in="b"/><feMergeNode in="SourceGraphic"/></feMerge></filter>
</defs>
<rect width="1200" height="500" fill="url(#bggrad)"/>
<rect x="18" y="18" width="1164" height="464" stroke="#48e8ff" stroke-opacity="0.4"/>
<text x="70" y="70" fill="#48e8ff" font-family="Consolas, monospace" font-size="28">INSTALLATION NETWORK</text><circle cx="600" cy="250" r="72" stroke="#48e8ff" fill="#0a1a23"/><text x="600" y="245" text-anchor="middle" fill="#d8fbff" font-family="Consolas, monospace" font-size="26">HALO ARRAY</text><text x="600" y="272" text-anchor="middle" fill="#81b8c1" font-family="Consolas, monospace" font-size="14">galaxy-wide containment system</text><circle cx="240" cy="130" r="54" stroke="#ffba57" fill="#0a1a23"/><text x="240" y="126" text-anchor="middle" fill="#d8fbff" font-family="Consolas, monospace" font-size="20">The Ark</text><text x="240" y="148" text-anchor="middle" fill="#81b8c1" font-family="Consolas, monospace" font-size="12">foundry / control</text><path d="M240 130 Q600 250 600 250" stroke="#48e8ff" stroke-width="1.6"/><circle cx="240" cy="370" r="54" stroke="#9dffcf" fill="#0a1a23"/><text x="240" y="366" text-anchor="middle" fill="#d8fbff" font-family="Consolas, monospace" font-size="20">Shield Worlds</text><text x="240" y="388" text-anchor="middle" fill="#81b8c1" font-family="Consolas, monospace" font-size="12">refuge / study</text><path d="M240 370 Q600 250 600 250" stroke="#48e8ff" stroke-width="1.6"/><circle cx="960" cy="130" r="54" stroke="#48e8ff" fill="#0a1a23"/><text x="960" y="126" text-anchor="middle" fill="#d8fbff" font-family="Consolas, monospace" font-size="20">Installation 04</text><text x="960" y="148" text-anchor="middle" fill="#81b8c1" font-family="Consolas, monospace" font-size="12">Alpha Halo</text><path d="M960 130 Q600 250 600 250" stroke="#48e8ff" stroke-width="1.6"/><circle cx="960" cy="250" r="54" stroke="#48e8ff" fill="#0a1a23"/><text x="960" y="246" text-anchor="middle" fill="#d8fbff" font-family="Consolas, monospace" font-size="20">Installation 05</text><text x="960" y="268" text-anchor="middle" fill="#81b8c1" font-family="Consolas, monospace" font-size="12">Delta Halo</text><path d="M960 250 Q600 250 600 250" stroke="#48e8ff" stroke-width="1.6"/><circle cx="960" cy="370" r="54" stroke="#ff4e63" fill="#0a1a23"/><text x="960" y="366" text-anchor="middle" fill="#d8fbff" font-family="Consolas, monospace" font-size="20">Installation 07</text><text x="960" y="388" text-anchor="middle" fill="#81b8c1" font-family="Consolas, monospace" font-size="12">Zeta Halo</text><path d="M960 370 Q600 250 600 250" stroke="#48e8ff" stroke-width="1.6"/>
</svg>