<svg xmlns="http://www.w3.org/2000/svg" width="1400" height="840" viewBox="0 0 1400 840" fill="none">
  <defs>
    <linearGradient id="bg" x1="0" y1="0" x2="1" y2="1">
      <stop offset="0%" stop-color="#081821"/>
      <stop offset="100%" stop-color="#031017"/>
    </linearGradient>
    <linearGradient id="panel" x1="0" y1="0" x2="0" y2="1">
      <stop offset="0%" stop-color="#0d2430" stop-opacity="0.96"/>
      <stop offset="100%" stop-color="#091821" stop-opacity="0.96"/>
    </linearGradient>
    <linearGradient id="line" x1="0" y1="0" x2="1" y2="0">
      <stop offset="0%" stop-color="#48e8ff" stop-opacity="0"/>
      <stop offset="18%" stop-color="#48e8ff" stop-opacity="0.75"/>
      <stop offset="82%" stop-color="#48e8ff" stop-opacity="0.75"/>
      <stop offset="100%" stop-color="#48e8ff" stop-opacity="0"/>
    </linearGradient>
    <filter id="glow" x="-60%" y="-60%" width="220%" height="220%">
      <feGaussianBlur stdDeviation="4.5" result="g"/>
      <feMerge><feMergeNode in="g"/><feMergeNode in="SourceGraphic"/></feMerge>
    </filter>
  </defs>
  <rect width="1400" height="840" fill="url(#bg)"/>
  <g opacity="0.08">
    <path d="M0 70 H1400" stroke="#48e8ff"/>
    <path d="M0 140 H1400" stroke="#48e8ff"/>
    <path d="M0 210 H1400" stroke="#48e8ff"/>
    <path d="M0 280 H1400" stroke="#48e8ff"/>
    <path d="M0 350 H1400" stroke="#48e8ff"/>
    <path d="M0 420 H1400" stroke="#48e8ff"/>
    <path d="M0 490 H1400" stroke="#48e8ff"/>
    <path d="M0 560 H1400" stroke="#48e8ff"/>
    <path d="M0 630 H1400" stroke="#48e8ff"/>
    <path d="M0 700 H1400" stroke="#48e8ff"/>
    <path d="M100 0 V840" stroke="#48e8ff"/>
    <path d="M250 0 V840" stroke="#48e8ff"/>
    <path d="M400 0 V840" stroke="#48e8ff"/>
    <path d="M550 0 V840" stroke="#48e8ff"/>
    <path d="M700 0 V840" stroke="#48e8ff"/>
    <path d="M850 0 V840" stroke="#48e8ff"/>
    <path d="M1000 0 V840" stroke="#48e8ff"/>
    <path d="M1150 0 V840" stroke="#48e8ff"/>
    <path d="M1300 0 V840" stroke="#48e8ff"/>
  </g>
  <rect x="20" y="20" width="1360" height="800" rx="14" fill="url(#panel)" stroke="#48e8ff" stroke-opacity="0.45"/>
  <rect x="42" y="40" width="1316" height="82" rx="10" fill="#0a1821" stroke="#48e8ff" stroke-opacity="0.28"/>
  
    <text x="68" y="92" fill="#d8fbff" font-family="Consolas, monospace" font-size="34" letter-spacing="1">MJOLNIR SYSTEM OVERVIEW</text>
    <text x="68" y="124" fill="#81b8c1" font-family="Consolas, monospace" font-size="17">ARMOR SUBSYSTEMS COMMONLY REFERENCED IN SPARTAN RECORDS</text>
    <path d="M52 146 H1348" stroke="url(#line)" stroke-width="3" filter="url(#glow)"/>
    <rect x="80" y="180" width="1240" height="580" rx="12" fill="#09161d" stroke="#48e8ff" stroke-opacity="0.45"/><text x="96" y="208" fill="#d8fbff" font-family="Consolas, monospace" font-size="20">SUIT SCHEMATIC</text><path d="M94 218 H1306" stroke="#48e8ff" stroke-opacity="0.35"/><circle cx="470" cy="300" r="46" fill="none" stroke="#48e8ff" stroke-width="3"/><rect x="425" y="346" width="90" height="180" rx="20" fill="none" stroke="#48e8ff" stroke-width="3"/><path d="M425 390 L372 470 M515 390 L570 470 M442 530 L410 650 M498 530 L530 650" stroke="#48e8ff" stroke-width="3" fill="none"/><path d="M890 250 L 520 300" stroke="#48e8ff" stroke-width="1.8"/><rect x="795" y="234" width="190" height="32" rx="8" fill="#081720" stroke="#48e8ff" stroke-opacity="0.35"/><text x="890" y="255" text-anchor="middle" fill="#d8fbff" font-family="Consolas, monospace" font-size="14">Helmet sensor suite</text><path d="M960 340 L 510 420" stroke="#48e8ff" stroke-width="1.8"/><rect x="865" y="324" width="190" height="32" rx="8" fill="#081720" stroke="#48e8ff" stroke-opacity="0.35"/><text x="960" y="345" text-anchor="middle" fill="#d8fbff" font-family="Consolas, monospace" font-size="14">Reactor / fusion pack</text><path d="M900 450 L 560 470" stroke="#48e8ff" stroke-width="1.8"/><rect x="805" y="434" width="190" height="32" rx="8" fill="#081720" stroke="#48e8ff" stroke-opacity="0.35"/><text x="900" y="455" text-anchor="middle" fill="#d8fbff" font-family="Consolas, monospace" font-size="14">Shield emitters</text><path d="M860 560 L 520 620" stroke="#48e8ff" stroke-width="1.8"/><rect x="765" y="544" width="190" height="32" rx="8" fill="#081720" stroke="#48e8ff" stroke-opacity="0.35"/><text x="860" y="565" text-anchor="middle" fill="#d8fbff" font-family="Consolas, monospace" font-size="14">Reactive leg servos</text><path d="M210 360 L 370 470" stroke="#48e8ff" stroke-width="1.8"/><rect x="115" y="344" width="190" height="32" rx="8" fill="#081720" stroke="#48e8ff" stroke-opacity="0.35"/><text x="210" y="365" text-anchor="middle" fill="#d8fbff" font-family="Consolas, monospace" font-size="14">Armor plating / impact layers</text><rect x="720" y="610" width="520" height="100" rx="12" fill="#09161d" stroke="#ffba57" stroke-opacity="0.45"/><text x="748" y="648" text-anchor="start" fill="#81b8c1" font-family="Consolas, monospace" font-size="16">A simplified schematic for SPARTAN, armor, and military technology files.</text><text x="748" y="678" text-anchor="start" fill="#81b8c1" font-family="Consolas, monospace" font-size="16">Used as context alongside program lineage and field operation records.</text>
</svg>