<svg xmlns="http://www.w3.org/2000/svg" width="1400" height="760" viewBox="0 0 1400 760" fill="none">
  <defs>
    <linearGradient id="bg" x1="0" y1="0" x2="1" y2="1">
      <stop offset="0%" stop-color="#07131b"/>
      <stop offset="100%" stop-color="#02070b"/>
    </linearGradient>
    <linearGradient id="panel" x1="0" y1="0" x2="0" y2="1">
      <stop offset="0%" stop-color="#0b202b" stop-opacity="0.96"/>
      <stop offset="100%" stop-color="#07141c" stop-opacity="0.96"/>
    </linearGradient>
    <linearGradient id="cyanLine" x1="0" y1="0" x2="1" y2="0">
      <stop offset="0%" stop-color="#48e8ff" stop-opacity="0.0"/>
      <stop offset="18%" stop-color="#48e8ff" stop-opacity="0.55"/>
      <stop offset="82%" stop-color="#48e8ff" stop-opacity="0.55"/>
      <stop offset="100%" stop-color="#48e8ff" stop-opacity="0.0"/>
    </linearGradient>
    <filter id="glow" x="-50%" y="-50%" width="200%" height="200%">
      <feGaussianBlur stdDeviation="6" result="g"/>
      <feMerge>
        <feMergeNode in="g"/>
        <feMergeNode in="SourceGraphic"/>
      </feMerge>
    </filter>
  </defs>
  <rect width="1400" height="760" fill="url(#bg)"/>
  <g opacity="0.12">
    <path d="M0 80 H1400" stroke="#48e8ff"/>
    <path d="M0 160 H1400" stroke="#48e8ff"/>
    <path d="M0 240 H1400" stroke="#48e8ff"/>
    <path d="M0 320 H1400" stroke="#48e8ff"/>
    <path d="M0 400 H1400" stroke="#48e8ff"/>
    <path d="M0 480 H1400" stroke="#48e8ff"/>
    <path d="M0 560 H1400" stroke="#48e8ff"/>
    <path d="M0 640 H1400" stroke="#48e8ff"/>
    <path d="M100 0 V760" stroke="#48e8ff"/>
    <path d="M260 0 V760" stroke="#48e8ff"/>
    <path d="M420 0 V760" stroke="#48e8ff"/>
    <path d="M580 0 V760" stroke="#48e8ff"/>
    <path d="M740 0 V760" stroke="#48e8ff"/>
    <path d="M900 0 V760" stroke="#48e8ff"/>
    <path d="M1060 0 V760" stroke="#48e8ff"/>
    <path d="M1220 0 V760" stroke="#48e8ff"/>
  </g>
  <rect x="24" y="24" width="1352" height="712" rx="10" fill="url(#panel)" stroke="#48e8ff" stroke-opacity="0.55"/>
  <rect x="48" y="46" width="1304" height="72" rx="8" fill="#081720" stroke="#48e8ff" stroke-opacity="0.35"/>
  
    <text x="72" y="92" fill="#d8fbff" font-family="Consolas, monospace" font-size="34" letter-spacing="2">SOURCE ECOSYSTEM</text>
    <text x="72" y="130" fill="#81b8c1" font-family="Consolas, monospace" font-size="18" letter-spacing="1">PRIMARY SOURCE TRACKS FEEDING THE ARCHIVE COMPILATION</text>
    <path d="M54 150 H1346" stroke="url(#cyanLine)" stroke-width="3" filter="url(#glow)"/>
    <circle cx="700" cy="380" r="108" fill="#0a1a22" stroke="#48e8ff" stroke-width="3"/><circle cx="700" cy="380" r="78" fill="none" stroke="#48e8ff" stroke-opacity="0.35"/><text x="700" y="372" text-anchor="middle" fill="#d8fbff" font-family="Consolas, monospace" font-size="28">ARCHIVE CORE</text><text x="700" y="400" text-anchor="middle" fill="#81b8c1" font-family="Consolas, monospace" font-size="15">compiled knowledge nexus</text><path d="M700 380 Q 460 260 220 220" stroke="#48e8ff" stroke-opacity="0.58" stroke-width="2.5"/><rect x="110" y="178" width="220" height="84" rx="10" fill="#0a1a22" stroke="#48e8ff" stroke-opacity="0.48"/><text x="220" y="214" text-anchor="middle" fill="#d8fbff" font-family="Consolas, monospace" font-size="21">Games</text><text x="220" y="240" text-anchor="middle" fill="#81b8c1" font-family="Consolas, monospace" font-size="14">Campaigns / terminals</text><path d="M700 380 Q 585 242 470 185" stroke="#48e8ff" stroke-opacity="0.58" stroke-width="2.5"/><rect x="360" y="143" width="220" height="84" rx="10" fill="#0a1a22" stroke="#48e8ff" stroke-opacity="0.48"/><text x="470" y="179" text-anchor="middle" fill="#d8fbff" font-family="Consolas, monospace" font-size="21">Novels</text><text x="470" y="205" text-anchor="middle" fill="#81b8c1" font-family="Consolas, monospace" font-size="14">Expanded chronology</text><path d="M700 380 Q 815 245 930 190" stroke="#48e8ff" stroke-opacity="0.58" stroke-width="2.5"/><rect x="820" y="148" width="220" height="84" rx="10" fill="#0a1a22" stroke="#48e8ff" stroke-opacity="0.48"/><text x="930" y="184" text-anchor="middle" fill="#d8fbff" font-family="Consolas, monospace" font-size="21">Comics</text><text x="930" y="210" text-anchor="middle" fill="#81b8c1" font-family="Consolas, monospace" font-size="14">Side arcs / perspectives</text><path d="M700 380 Q 940 275 1180 250" stroke="#48e8ff" stroke-opacity="0.58" stroke-width="2.5"/><rect x="1070" y="208" width="220" height="84" rx="10" fill="#0a1a22" stroke="#48e8ff" stroke-opacity="0.48"/><text x="1180" y="244" text-anchor="middle" fill="#d8fbff" font-family="Consolas, monospace" font-size="21">Visual Media</text><text x="1180" y="270" text-anchor="middle" fill="#81b8c1" font-family="Consolas, monospace" font-size="14">Legends / live action</text><path d="M700 380 Q 465 420 230 540" stroke="#48e8ff" stroke-opacity="0.58" stroke-width="2.5"/><rect x="120" y="498" width="220" height="84" rx="10" fill="#0a1a22" stroke="#48e8ff" stroke-opacity="0.48"/><text x="230" y="534" text-anchor="middle" fill="#d8fbff" font-family="Consolas, monospace" font-size="21">Logs & Audio</text><text x="230" y="560" text-anchor="middle" fill="#81b8c1" font-family="Consolas, monospace" font-size="14">Mission records</text><path d="M700 380 Q 585 438 470 575" stroke="#48e8ff" stroke-opacity="0.58" stroke-width="2.5"/><rect x="360" y="533" width="220" height="84" rx="10" fill="#0a1a22" stroke="#48e8ff" stroke-opacity="0.48"/><text x="470" y="569" text-anchor="middle" fill="#d8fbff" font-family="Consolas, monospace" font-size="21">Waypoint</text><text x="470" y="595" text-anchor="middle" fill="#81b8c1" font-family="Consolas, monospace" font-size="14">Canon statements</text><path d="M700 380 Q 825 435 950 570" stroke="#48e8ff" stroke-opacity="0.58" stroke-width="2.5"/><rect x="840" y="528" width="220" height="84" rx="10" fill="#0a1a22" stroke="#48e8ff" stroke-opacity="0.48"/><text x="950" y="564" text-anchor="middle" fill="#d8fbff" font-family="Consolas, monospace" font-size="21">Reference Guides</text><text x="950" y="590" text-anchor="middle" fill="#81b8c1" font-family="Consolas, monospace" font-size="14">Encyclopedias / sourcebooks</text>
    <rect x="72" y="610" width="1256" height="90" rx="10" fill="#0a1a22" stroke="#48e8ff" stroke-opacity="0.55"/>
    <text x="90" y="640" fill="#d8fbff" font-family="Consolas, monospace" font-size="22">COMPILATION NOTE</text>
    <path d="M86 648 H1314" stroke="#48e8ff" stroke-opacity="0.5"/>
    <text x="90" y="662" fill="#81b8c1" font-family="Consolas, monospace" font-size="16">The archive synthesizes campaign narratives, novels, comics, canon statements, and reference works into a unified chronology and registry system.</text><text x="90" y="686" fill="#81b8c1" font-family="Consolas, monospace" font-size="16">Conflicting source statements are generally surfaced in the relevant record rather than suppressed.</text>
    
</svg>