<svg xmlns="http://www.w3.org/2000/svg" width="1200" height="500" viewBox="0 0 1200 500" fill="none">
<defs>
  <linearGradient id="bggrad" x1="0" y1="0" x2="1" y2="1">
    <stop offset="0%" stop-color="#07131a"/>
    <stop offset="100%" stop-color="#03080c"/>
  </linearGradient>
  <filter id="glow"><feGaussianBlur stdDeviation="5" result="b"/><feMerge><feMergeNode in="b"/><feMergeNode in="SourceGraphic"/></feMerge></filter>
</defs>
<rect width="1200" height="500" fill="url(#bggrad)"/>
<rect x="18" y="18" width="1164" height="464" stroke="#48e8ff" stroke-opacity="0.4"/>
<text x="70" y="70" fill="#48e8ff" font-family="Consolas, monospace" font-size="28">SOURCE ECOSYSTEM</text><rect x="110" y="120" width="210" height="90" rx="8" stroke="#48e8ff" fill="#0a1a23"/><text x="215" y="158" text-anchor="middle" fill="#d8fbff" font-family="Consolas, monospace" font-size="24">Games</text><text x="215" y="180" text-anchor="middle" fill="#81b8c1" font-family="Consolas, monospace" font-size="13">main campaigns / terminals</text><rect x="385" y="120" width="210" height="90" rx="8" stroke="#48e8ff" fill="#0a1a23"/><text x="490" y="158" text-anchor="middle" fill="#d8fbff" font-family="Consolas, monospace" font-size="24">Novels</text><text x="490" y="180" text-anchor="middle" fill="#81b8c1" font-family="Consolas, monospace" font-size="13">expanded chronology</text><rect x="660" y="120" width="210" height="90" rx="8" stroke="#48e8ff" fill="#0a1a23"/><text x="765" y="158" text-anchor="middle" fill="#d8fbff" font-family="Consolas, monospace" font-size="24">Comics</text><text x="765" y="180" text-anchor="middle" fill="#81b8c1" font-family="Consolas, monospace" font-size="13">side stories / arcs</text><rect x="935" y="120" width="210" height="90" rx="8" stroke="#48e8ff" fill="#0a1a23"/><text x="1040" y="158" text-anchor="middle" fill="#d8fbff" font-family="Consolas, monospace" font-size="24">Visual Media</text><text x="1040" y="180" text-anchor="middle" fill="#81b8c1" font-family="Consolas, monospace" font-size="13">Legends / live action</text><rect x="250" y="300" width="210" height="90" rx="8" stroke="#48e8ff" fill="#0a1a23"/><text x="355" y="338" text-anchor="middle" fill="#d8fbff" font-family="Consolas, monospace" font-size="24">Logs & Audio</text><text x="355" y="360" text-anchor="middle" fill="#81b8c1" font-family="Consolas, monospace" font-size="13">voice / mission records</text><rect x="550" y="300" width="210" height="90" rx="8" stroke="#48e8ff" fill="#0a1a23"/><text x="655" y="338" text-anchor="middle" fill="#d8fbff" font-family="Consolas, monospace" font-size="24">Waypoint & Canon</text><text x="655" y="360" text-anchor="middle" fill="#81b8c1" font-family="Consolas, monospace" font-size="13">articles / chronicles</text><rect x="850" y="300" width="210" height="90" rx="8" stroke="#48e8ff" fill="#0a1a23"/><text x="955" y="338" text-anchor="middle" fill="#d8fbff" font-family="Consolas, monospace" font-size="24">Reference Books</text><text x="955" y="360" text-anchor="middle" fill="#81b8c1" font-family="Consolas, monospace" font-size="13">encyclopedias / guides</text><path d="M220 210 H385 M595 210 H660 M870 210 H935" stroke="#48e8ff" stroke-width="2"/><path d="M490 210 V300 M770 210 V300" stroke="#48e8ff" stroke-width="2"/>
</svg>