<svg xmlns="http://www.w3.org/2000/svg" width="1200" height="500" viewBox="0 0 1200 500" fill="none">
<defs>
  <linearGradient id="bggrad" x1="0" y1="0" x2="1" y2="1">
    <stop offset="0%" stop-color="#07131a"/>
    <stop offset="100%" stop-color="#03080c"/>
  </linearGradient>
  <filter id="glow"><feGaussianBlur stdDeviation="5" result="b"/><feMerge><feMergeNode in="b"/><feMergeNode in="SourceGraphic"/></feMerge></filter>
</defs>
<rect width="1200" height="500" fill="url(#bggrad)"/>
<rect x="18" y="18" width="1164" height="464" stroke="#48e8ff" stroke-opacity="0.4"/>

<text x="70" y="70" fill="#48e8ff" font-family="Consolas, monospace" font-size="28">SPARTAN PROGRAM LINEAGE</text>
<rect x="90" y="180" width="180" height="100" rx="8" stroke="#48e8ff" fill="#0a1a23"/>
<text x="180" y="225" text-anchor="middle" fill="#d8fbff" font-family="Consolas, monospace" font-size="26">ORION</text>
<text x="180" y="252" text-anchor="middle" fill="#81b8c1" font-family="Consolas, monospace" font-size="14">SPARTAN-I precursor</text>
<path d="M270 230 H360" stroke="#48e8ff" stroke-width="2"/>
<rect x="360" y="130" width="180" height="100" rx="8" stroke="#48e8ff" fill="#0a1a23"/>
<text x="450" y="175" text-anchor="middle" fill="#d8fbff" font-family="Consolas, monospace" font-size="26">SPARTAN-II</text>
<text x="450" y="202" text-anchor="middle" fill="#81b8c1" font-family="Consolas, monospace" font-size="14">Halsey / MJOLNIR</text>
<path d="M450 230 V320" stroke="#48e8ff" stroke-width="2"/>
<rect x="360" y="320" width="180" height="100" rx="8" stroke="#48e8ff" fill="#0a1a23"/>
<text x="450" y="365" text-anchor="middle" fill="#d8fbff" font-family="Consolas, monospace" font-size="26">SPARTAN-III</text>
<text x="450" y="392" text-anchor="middle" fill="#81b8c1" font-family="Consolas, monospace" font-size="14">Kurt / cheaper waves</text>
<path d="M540 180 H650" stroke="#48e8ff" stroke-width="2"/>
<rect x="650" y="180" width="180" height="100" rx="8" stroke="#48e8ff" fill="#0a1a23"/>
<text x="740" y="225" text-anchor="middle" fill="#d8fbff" font-family="Consolas, monospace" font-size="26">SPARTAN-IV</text>
<text x="740" y="252" text-anchor="middle" fill="#81b8c1" font-family="Consolas, monospace" font-size="14">Volunteer generation</text>
<path d="M830 230 H1110" stroke="#48e8ff" stroke-width="2"/>
<text x="970" y="210" text-anchor="middle" fill="#ffba57" font-family="Consolas, monospace" font-size="18">Deployment across post-war era</text>
<text x="970" y="238" text-anchor="middle" fill="#81b8c1" font-family="Consolas, monospace" font-size="14">Infinity, Spartan Ops, Created era, Zeta Halo</text>

</svg>