<svg xmlns="http://www.w3.org/2000/svg" width="1400" height="760" viewBox="0 0 1400 760" fill="none">
  <defs>
    <linearGradient id="bg" x1="0" y1="0" x2="1" y2="1">
      <stop offset="0%" stop-color="#07131b"/>
      <stop offset="100%" stop-color="#02070b"/>
    </linearGradient>
    <linearGradient id="panel" x1="0" y1="0" x2="0" y2="1">
      <stop offset="0%" stop-color="#0b202b" stop-opacity="0.96"/>
      <stop offset="100%" stop-color="#07141c" stop-opacity="0.96"/>
    </linearGradient>
    <linearGradient id="cyanLine" x1="0" y1="0" x2="1" y2="0">
      <stop offset="0%" stop-color="#48e8ff" stop-opacity="0.0"/>
      <stop offset="18%" stop-color="#48e8ff" stop-opacity="0.55"/>
      <stop offset="82%" stop-color="#48e8ff" stop-opacity="0.55"/>
      <stop offset="100%" stop-color="#48e8ff" stop-opacity="0.0"/>
    </linearGradient>
    <filter id="glow" x="-50%" y="-50%" width="200%" height="200%">
      <feGaussianBlur stdDeviation="6" result="g"/>
      <feMerge>
        <feMergeNode in="g"/>
        <feMergeNode in="SourceGraphic"/>
      </feMerge>
    </filter>
  </defs>
  <rect width="1400" height="760" fill="url(#bg)"/>
  <g opacity="0.12">
    <path d="M0 80 H1400" stroke="#48e8ff"/>
    <path d="M0 160 H1400" stroke="#48e8ff"/>
    <path d="M0 240 H1400" stroke="#48e8ff"/>
    <path d="M0 320 H1400" stroke="#48e8ff"/>
    <path d="M0 400 H1400" stroke="#48e8ff"/>
    <path d="M0 480 H1400" stroke="#48e8ff"/>
    <path d="M0 560 H1400" stroke="#48e8ff"/>
    <path d="M0 640 H1400" stroke="#48e8ff"/>
    <path d="M100 0 V760" stroke="#48e8ff"/>
    <path d="M260 0 V760" stroke="#48e8ff"/>
    <path d="M420 0 V760" stroke="#48e8ff"/>
    <path d="M580 0 V760" stroke="#48e8ff"/>
    <path d="M740 0 V760" stroke="#48e8ff"/>
    <path d="M900 0 V760" stroke="#48e8ff"/>
    <path d="M1060 0 V760" stroke="#48e8ff"/>
    <path d="M1220 0 V760" stroke="#48e8ff"/>
  </g>
  <rect x="24" y="24" width="1352" height="712" rx="10" fill="url(#panel)" stroke="#48e8ff" stroke-opacity="0.55"/>
  <rect x="48" y="46" width="1304" height="72" rx="8" fill="#081720" stroke="#48e8ff" stroke-opacity="0.35"/>
  
    <text x="72" y="92" fill="#d8fbff" font-family="Consolas, monospace" font-size="34" letter-spacing="2">MASTER CHRONOLOGY // ERA MAP</text>
    <text x="72" y="130" fill="#81b8c1" font-family="Consolas, monospace" font-size="18" letter-spacing="1">PRIMARY CIVILIZATIONAL AND WAR EPOCHS</text>
    <path d="M54 150 H1346" stroke="url(#cyanLine)" stroke-width="3" filter="url(#glow)"/>
    <path d="M110 390 H1290" stroke="#48e8ff" stroke-width="6" stroke-opacity="0.75" filter="url(#glow)"/><circle cx="150" cy="390" r="11" fill="#48e8ff" stroke="#d8fbff" stroke-opacity="0.6"/><path d="M150 390 V 338" stroke="#48e8ff" stroke-opacity="0.6"/><rect x="68" y="212" width="164" height="126" rx="10" fill="#0a1a22" stroke="#48e8ff" stroke-opacity="0.55"/><text x="150" y="240" text-anchor="middle" fill="#d8fbff" font-family="Consolas, monospace" font-size="18">Precursors</text><text x="150" y="268" text-anchor="middle" fill="#81b8c1" font-family="Consolas, monospace" font-size="13">Prehistoric cosmic civilization</text><text x="150" y="291" text-anchor="middle" fill="#81b8c1" font-family="Consolas, monospace" font-size="13">c. 10M BCE +</text><path d="M86 304 H214" stroke="#48e8ff" stroke-opacity="0.25"/><text x="150" y="324" text-anchor="middle" fill="#ffba57" font-family="Consolas, monospace" font-size="12">ARCHIVE ANCHOR</text><circle cx="305" cy="390" r="11" fill="#48e8ff" stroke="#d8fbff" stroke-opacity="0.6"/><path d="M305 390 V 455" stroke="#48e8ff" stroke-opacity="0.6"/><rect x="223" y="455" width="164" height="126" rx="10" fill="#0a1a22" stroke="#48e8ff" stroke-opacity="0.55"/><text x="305" y="483" text-anchor="middle" fill="#d8fbff" font-family="Consolas, monospace" font-size="18">Forerunners</text><text x="305" y="511" text-anchor="middle" fill="#81b8c1" font-family="Consolas, monospace" font-size="13">Ecumene, Mantle, Flood War</text><text x="305" y="534" text-anchor="middle" fill="#81b8c1" font-family="Consolas, monospace" font-size="13">~150k–97,445 BCE</text><path d="M241 547 H369" stroke="#48e8ff" stroke-opacity="0.25"/><text x="305" y="567" text-anchor="middle" fill="#ffba57" font-family="Consolas, monospace" font-size="12">ARCHIVE ANCHOR</text><circle cx="460" cy="390" r="11" fill="#48e8ff" stroke="#d8fbff" stroke-opacity="0.6"/><path d="M460 390 V 338" stroke="#48e8ff" stroke-opacity="0.6"/><rect x="378" y="212" width="164" height="126" rx="10" fill="#0a1a22" stroke="#48e8ff" stroke-opacity="0.55"/><text x="460" y="240" text-anchor="middle" fill="#d8fbff" font-family="Consolas, monospace" font-size="18">Ancient Humanity</text><text x="460" y="268" text-anchor="middle" fill="#81b8c1" font-family="Consolas, monospace" font-size="13">Expansion and conflict era</text><text x="460" y="291" text-anchor="middle" fill="#81b8c1" font-family="Consolas, monospace" font-size="13">before 97,445 BCE</text><path d="M396 304 H524" stroke="#48e8ff" stroke-opacity="0.25"/><text x="460" y="324" text-anchor="middle" fill="#ffba57" font-family="Consolas, monospace" font-size="12">ARCHIVE ANCHOR</text><circle cx="615" cy="390" r="11" fill="#48e8ff" stroke="#d8fbff" stroke-opacity="0.6"/><path d="M615 390 V 455" stroke="#48e8ff" stroke-opacity="0.6"/><rect x="533" y="455" width="164" height="126" rx="10" fill="#0a1a22" stroke="#48e8ff" stroke-opacity="0.55"/><text x="615" y="483" text-anchor="middle" fill="#d8fbff" font-family="Consolas, monospace" font-size="18">Halo Array</text><text x="615" y="511" text-anchor="middle" fill="#81b8c1" font-family="Consolas, monospace" font-size="13">Array firing / reseeding</text><text x="615" y="534" text-anchor="middle" fill="#81b8c1" font-family="Consolas, monospace" font-size="13">97,445 BCE</text><path d="M551 547 H679" stroke="#48e8ff" stroke-opacity="0.25"/><text x="615" y="567" text-anchor="middle" fill="#ffba57" font-family="Consolas, monospace" font-size="12">ARCHIVE ANCHOR</text><circle cx="770" cy="390" r="11" fill="#48e8ff" stroke="#d8fbff" stroke-opacity="0.6"/><path d="M770 390 V 338" stroke="#48e8ff" stroke-opacity="0.6"/><rect x="688" y="212" width="164" height="126" rx="10" fill="#0a1a22" stroke="#48e8ff" stroke-opacity="0.55"/><text x="770" y="240" text-anchor="middle" fill="#d8fbff" font-family="Consolas, monospace" font-size="18">Covenant Ascendancy</text><text x="770" y="268" text-anchor="middle" fill="#81b8c1" font-family="Consolas, monospace" font-size="13">Theocratic imperial expansion</text><text x="770" y="291" text-anchor="middle" fill="#81b8c1" font-family="Consolas, monospace" font-size="13">852 BCE–2525 CE</text><path d="M706 304 H834" stroke="#48e8ff" stroke-opacity="0.25"/><text x="770" y="324" text-anchor="middle" fill="#ffba57" font-family="Consolas, monospace" font-size="12">ARCHIVE ANCHOR</text><circle cx="925" cy="390" r="11" fill="#48e8ff" stroke="#d8fbff" stroke-opacity="0.6"/><path d="M925 390 V 455" stroke="#48e8ff" stroke-opacity="0.6"/><rect x="843" y="455" width="164" height="126" rx="10" fill="#0a1a22" stroke="#48e8ff" stroke-opacity="0.55"/><text x="925" y="483" text-anchor="middle" fill="#d8fbff" font-family="Consolas, monospace" font-size="18">Human-Covenant War</text><text x="925" y="511" text-anchor="middle" fill="#81b8c1" font-family="Consolas, monospace" font-size="13">Open conflict with humanity</text><text x="925" y="534" text-anchor="middle" fill="#81b8c1" font-family="Consolas, monospace" font-size="13">2525–2552</text><path d="M861 547 H989" stroke="#48e8ff" stroke-opacity="0.25"/><text x="925" y="567" text-anchor="middle" fill="#ffba57" font-family="Consolas, monospace" font-size="12">ARCHIVE ANCHOR</text><circle cx="1080" cy="390" r="11" fill="#48e8ff" stroke="#d8fbff" stroke-opacity="0.6"/><path d="M1080 390 V 338" stroke="#48e8ff" stroke-opacity="0.6"/><rect x="998" y="212" width="164" height="126" rx="10" fill="#0a1a22" stroke="#48e8ff" stroke-opacity="0.55"/><text x="1080" y="240" text-anchor="middle" fill="#d8fbff" font-family="Consolas, monospace" font-size="18">Post-War / Reclaimer</text><text x="1080" y="268" text-anchor="middle" fill="#81b8c1" font-family="Consolas, monospace" font-size="13">Shield worlds, Didact, Created</text><text x="1080" y="291" text-anchor="middle" fill="#81b8c1" font-family="Consolas, monospace" font-size="13">2553–2559</text><path d="M1016 304 H1144" stroke="#48e8ff" stroke-opacity="0.25"/><text x="1080" y="324" text-anchor="middle" fill="#ffba57" font-family="Consolas, monospace" font-size="12">ARCHIVE ANCHOR</text><circle cx="1235" cy="390" r="11" fill="#48e8ff" stroke="#d8fbff" stroke-opacity="0.6"/><path d="M1235 390 V 455" stroke="#48e8ff" stroke-opacity="0.6"/><rect x="1153" y="455" width="164" height="126" rx="10" fill="#0a1a22" stroke="#48e8ff" stroke-opacity="0.55"/><text x="1235" y="483" text-anchor="middle" fill="#d8fbff" font-family="Consolas, monospace" font-size="18">Banished / Zeta Halo</text><text x="1235" y="511" text-anchor="middle" fill="#81b8c1" font-family="Consolas, monospace" font-size="13">Late conflict era</text><text x="1235" y="534" text-anchor="middle" fill="#81b8c1" font-family="Consolas, monospace" font-size="13">2559–2560+</text><path d="M1171 547 H1299" stroke="#48e8ff" stroke-opacity="0.25"/><text x="1235" y="567" text-anchor="middle" fill="#ffba57" font-family="Consolas, monospace" font-size="12">ARCHIVE ANCHOR</text>
    <rect x="72" y="610" width="1256" height="90" rx="10" fill="#0a1a22" stroke="#ffba57" stroke-opacity="0.55"/>
    <text x="90" y="640" fill="#d8fbff" font-family="Consolas, monospace" font-size="22">READING NOTE</text>
    <path d="M86 648 H1314" stroke="#ffba57" stroke-opacity="0.5"/>
    <text x="90" y="662" fill="#81b8c1" font-family="Consolas, monospace" font-size="16">Chronological records in the archive are organized around these anchor eras; individual records may overlap multiple periods.</text><text x="90" y="686" fill="#81b8c1" font-family="Consolas, monospace" font-size="16">Entity registries and annex files provide cross-era linkage for characters, species, installations, fleets, and source origin.</text>
    
</svg>